<svg xmlns="http://www.w3.org/2000/svg" xmlns:xlink="http://www.w3.org/1999/xlink" width="1088" height="460" viewBox="0 0 1088 460">
  <defs>
    <clipPath id="clip-path">
      <rect id="ae48ce49353f22a1a342c70b67570793" width="1088" height="460" rx="16" transform="translate(139 1619)" fill="#ffcb85" opacity="0.3"/>
    </clipPath>
  </defs>
  <g id="Mask_Group_6" data-name="Mask Group 6" transform="translate(-139 -1619)" clip-path="url(#clip-path)">
    <g id="Group_54466" data-name="Group 54466" transform="translate(-15.771 1463.742)">
      <g id="Group_54465" data-name="Group 54465">
        <path id="Path_8623" data-name="Path 8623" d="M1198.949-440.653h0Z" transform="translate(-954.751 558.046)" fill="none" stroke="#ffcb85" stroke-width="1"/>
        <path id="Path_8624" data-name="Path 8624" d="M1443.647-381.806a292.341,292.341,0,0,0-55.353-5.453A290.437,290.437,0,0,0,1285.328-368.4l-.162.053-.644.271c-4.538,1.708-8.977,3.575-13.406,5.555l-1.229.532h-.056q-6.734,3.047-13.306,6.411h-.052l-1.177.643c-4.272,2.193-8.5,4.539-12.716,6.944-.638.431-1.282.8-1.867,1.181-3.743,2.187-7.377,4.485-10.957,6.837-.373.266-1.017.585-1.82,1.122a290.916,290.916,0,0,0-44.4,36.442v.053h-.052a2.881,2.881,0,0,0-.373.426c.531-1.282,1.015-2.565,1.548-3.794l.052-.053.267-.644c2.459-5.5,5.13-10.9,8.017-16.239a268.811,268.811,0,0,1,67.377-81.8l.054-.053.052-.054c1.5-1.229,3.155-2.457,4.811-3.74,1.23-.963,2.353-1.873,3.368-2.671.909-.644,1.921-1.336,2.99-2.139,1.874-1.336,3.688-2.671,5.448-3.9,2.728-1.926,5.508-3.74,8.283-5.507l.106-.053.321-.213c2.943-1.867,5.879-3.687,8.869-5.395l.054-.053a264.816,264.816,0,0,1,104.678-34.468A264.93,264.93,0,0,1,1443.647-381.806Z" transform="translate(-1023.136 462.759)" fill="none" stroke="#ffcb85" stroke-width="1"/>
        <path id="Path_8625" data-name="Path 8625" d="M1307.4-208.8c.373-6.252.585-12.5.585-18.756a290.18,290.18,0,0,0-18.861-102.911l-.054-.16-.213-.532c-1.6-4.06-3.2-8.119-4.968-12.078-.857-2.028-1.815-3.953-2.618-5.768-.75-1.607-1.5-3.368-2.4-5.235l-.056-.106-.585-1.176c-.378-.751-.75-1.5-1.121-2.193l-.215-.484c0-.053-.052-.053-.052-.107a.184.184,0,0,1-.059-.16l-.16-.266-.106-.213-.106-.213-.106-.213c-.48-.963-.965-1.926-1.5-2.888l-.052-.053-.052-.16-.054-.053c-.751-1.442-1.5-2.884-2.351-4.326l-.054-.106-.052-.112-.161-.319-.483-.75v-.048q-1.439-2.65-3.045-5.454l-.052-.053-.054-.106-.052-.106-.056-.106c-1.334-2.245-2.723-4.6-4.276-7l-.054-.107c-1.388-2.187-2.83-4.432-4.274-6.677l-.159-.213-.158-.213c-.644-.963-1.442-2.192-2.353-3.527l-.482-.7-.054-.106-.159-.161-.054-.053-.16-.266-.106-.106-.054-.107-.751-1.016-.052-.107c-1.177-1.66-2.351-3.315-3.634-5.023v-.053h-.054l-.16-.266c-.054,0-.054,0-.054-.059-1.069-1.5-2.192-2.937-3.361-4.432-.75-.964-1.336-1.708-1.713-2.192-1.071-1.442-2.192-2.831-3.365-4.22l-.057-.053-.531-.644q-1.924-2.4-4.168-4.969l-.054-.053v-.053c-4.7-5.448-9.671-10.737-14.856-15.972-.1-.054-.156-.16-.264-.272,1.388.591,2.882,1.176,4.272,1.82a268.489,268.489,0,0,1,121.826,109.7l.106.16a265.111,265.111,0,0,1,34.408,104.513,263.43,263.43,0,0,1-80.787,44.188c.16-.963.319-1.873.425-2.671.376-1.98.751-3.954,1.121-6.04v-.159l.056-.213c.961-6.038,1.767-12.13,2.35-18.223.161-1.761.267-3.416.373-5.023C1307.134-205.916,1307.293-207.3,1307.4-208.8Z" transform="translate(-851.357 592.711)" fill="none" stroke="#ffcb85" stroke-width="1"/>
        <path id="Path_8626" data-name="Path 8626" d="M1434.555-392.911c-.265.591-.479,1.176-.744,1.708q-.646,1.6-1.123,2.729a268.637,268.637,0,0,1-109.695,121.768,265.759,265.759,0,0,1-104.675,34.521,266.012,266.012,0,0,1-44.294-80.9,291.582,291.582,0,0,0,55.3,5.4,290.694,290.694,0,0,0,103.018-18.809c4.278-1.66,8.5-3.421,12.662-5.236l.911-.378h.106l.106-.053c2.245-1.011,4.437-1.974,6.464-2.937l.161-.106.16-.053.269-.16c1.5-.7,2.94-1.389,4.38-2.086l.107-.053.158-.106.106-.053.38-.213.744-.378h.052l.592-.266c1.017-.479,1.919-1.016,2.778-1.442l.425-.213.217-.106.054-.054.319-.165.373-.213h.106l.054-.053h.054v-.053c1.067-.532,2.03-1.069,2.993-1.6a14.787,14.787,0,0,0,1.761-.963h.054l.106-.054.378-.213h.054l.052-.053c1.6-.91,3.257-1.867,4.972-2.831l.744-.43.054-.053c.212-.106.963-.532,1.765-1.064,1.282-.7,2.511-1.447,3.688-2.139v-.053l.852-.484.106-.106h.054c.43-.266,1.229-.745,2.138-1.336,1.874-1.176,3.741-2.405,5.608-3.628l.219-.165.214-.106.106-.053c1.707-1.176,3.526-2.405,5.393-3.794l.108-.053.054-.053.106-.053c1.555-1.069,3.049-2.139,4.437-3.209h.054c.052-.053.106-.053.16-.106,2.565-1.867,5.022-3.74,7.481-5.661l.479-.373.165-.165c1.282-1.011,2.617-2.081,3.9-3.1l.162-.16h.052l.533-.425.052-.053.107-.112.106-.106c1.713-1.336,3.314-2.724,4.81-4.006v-.054c5.508-4.7,10.849-9.62,16.031-14.855Z" transform="translate(-1062.402 764.319)" fill="none" stroke="#ffcb85" stroke-width="1"/>
        <path id="Path_8627" data-name="Path 8627" d="M1172.96-378.111l-.012,0h-.005Z" transform="translate(-1067.078 828.246)" fill="none" stroke="#ffcb85" stroke-width="1"/>
        <path id="Path_8628" data-name="Path 8628" d="M1313.67-181.3c-1.065-.431-2.187-.856-3.257-1.335l-.054-.059-1.017-.425a268.542,268.542,0,0,1-108.093-88.588c-4.862-6.837-9.507-13.84-13.733-21.107l-.159-.266a265.952,265.952,0,0,1-34.3-104.407,264.793,264.793,0,0,1,80.894-44.241,288.072,288.072,0,0,0-5.449,55.356,290.436,290.436,0,0,0,18.863,102.965,283.014,283.014,0,0,0,29.546,57.33v.053a294.05,294.05,0,0,0,36.44,44.454A1.43,1.43,0,0,0,1313.67-181.3Z" transform="translate(-1153.002 553.402)" fill="none" stroke="#ffcb85" stroke-width="1"/>
        <path id="Path_8629" data-name="Path 8629" d="M1318.335-436.8a289.908,289.908,0,0,0-102.428,121.5,287.939,287.939,0,0,0-19.72,61.5,291.7,291.7,0,0,0-5.607,56.745v.963c-.59-1.494-1.282-2.937-1.82-4.384a267.663,267.663,0,0,1-17.419-95.213,268.371,268.371,0,0,1,8.869-68.552,264.961,264.961,0,0,1,49.695-98.479A265.561,265.561,0,0,1,1318.335-436.8Z" transform="translate(-1073.99 462.716)" fill="none" stroke="#ffcb85" stroke-width="1"/>
        <path id="Path_8630" data-name="Path 8630" d="M1469.536-385.859a266.327,266.327,0,0,1-25.913,88.483A290.583,290.583,0,0,0,1322.116-399.8a284.432,284.432,0,0,0-28.371-11.009h-.052c-1.5-.532-2.943-.958-4.383-1.389h-.052l-.054-.053c-1.55-.479-3.1-.963-4.7-1.389l-.106-.054h-.108l-.423-.106c-2.461-.75-4.866-1.389-7.271-2.033s-5.022-1.282-7.692-1.867h-.054l-.264-.107c-2.567-.59-5.183-1.122-7.8-1.713h-.325a.052.052,0,0,0-.052-.053h-.215v-.054c-1.121-.16-2.511-.478-4.165-.8l-.8-.159h-.054l-.265-.053h-.161l-.264-.059h-.113l-.16-.053c-.533-.054-1.01-.16-1.123-.16l-.158-.054h-.108q-2.884-.557-6.093-.957l-.371-.054c-1.815-.324-3.689-.59-5.5-.8-1.229-.159-2.245-.265-2.889-.318-1.708-.272-3.469-.431-5.291-.591l-.052-.053-.8-.053h-.054c-2.032-.213-4.118-.426-6.417-.532l-.16-.053c-7.156-.538-14.424-.8-21.743-.8h-.481c1.442-.591,2.83-1.229,4.272-1.82a269.431,269.431,0,0,1,95.327-17.415,270.36,270.36,0,0,1,68.494,8.869A266.025,266.025,0,0,1,1469.536-385.859Z" transform="translate(-937.354 541.775)" fill="none" stroke="#ffcb85" stroke-width="1"/>
        <path id="Path_8631" data-name="Path 8631" d="M1354.081-313.1a267.2,267.2,0,0,1-8.869,68.45,265.774,265.774,0,0,1-49.635,98.422,267.478,267.478,0,0,1-88.433-25.864,291.146,291.146,0,0,0,102.379-121.5v-.053c2.025-4.437,3.9-8.982,5.712-13.573l.054-.107c.909-2.3,1.709-4.544,2.511-6.677v-.053l.056-.165v-.053l.158-.319c.538-1.6,1.071-3.1,1.553-4.6l.054-.054.054-.212.052-.107.161-.532c.479-1.447.909-2.783,1.281-4.012l.267-.8.054-.053v-.106c.642-1.926,1.282-3.954,1.873-6.145l.052-.107v-.16c.746-2.352,1.336-4.65,1.921-6.949.106-.319.319-1.07.538-2.032.373-1.442.746-2.884,1.064-4.166v-.106l.219-.91.054-.053v-.053c.106-.479.319-1.336.531-2.458.481-2.134.961-4.326,1.442-6.518l.054-.266v-.213l.054-.16c.377-2.085.856-4.331,1.229-6.682v-.053c.377-1.921.644-3.847.909-5.608v-.053c.534-3.156.909-6.2,1.282-9.3l.106-.638v-.213c.214-1.655.373-3.261.59-4.969v-.16l.055-.8.052-.159c.214-2.193.371-4.385.533-6.412.533-7.214.8-14.483.8-21.857v-.532c.586,1.495,1.23,2.937,1.815,4.438A269.08,269.08,0,0,1,1354.081-313.1Z" transform="translate(-919.309 678.364)" fill="none" stroke="#ffcb85" stroke-width="1"/>
        <path id="Path_8632" data-name="Path 8632" d="M1419.614-280.82c-1.442.591-2.936,1.229-4.376,1.82a269.149,269.149,0,0,1-95.273,17.415,270.347,270.347,0,0,1-68.5-8.87,266.233,266.233,0,0,1-98.421-49.69,264.57,264.57,0,0,1,25.916-88.482A290.092,290.092,0,0,0,1300.409-306.2a282.269,282.269,0,0,0,61.5,19.718,288.272,288.272,0,0,0,57.224,5.714C1419.3-280.767,1419.454-280.82,1419.614-280.82Z" transform="translate(-1153.045 696.415)" fill="none" stroke="#ffcb85" stroke-width="1"/>
      </g>
    </g>
  </g>
</svg>
