<svg id="first" xmlns="http://www.w3.org/2000/svg" width="91.655" height="90.656" viewBox="0 0 91.655 90.656">
  <path id="Path_6" data-name="Path 6" d="M183.734,119.312a31.343,31.343,0,1,0-31.344,31.343A31.343,31.343,0,0,0,183.734,119.312ZM152.39,147.671a28.358,28.358,0,1,1,28.358-28.358A28.358,28.358,0,0,1,152.39,147.671Zm0,0" transform="translate(-106.568 -77.461)"/>
  <path id="Path_7" data-name="Path 7" d="M207.318,150.359A23.881,23.881,0,1,0,231.2,174.24,23.881,23.881,0,0,0,207.318,150.359Zm0,44.776a20.9,20.9,0,1,1,20.9-20.9A20.9,20.9,0,0,1,207.318,195.135Zm0,0" transform="translate(-161.496 -132.389)"/>
  <path id="Path_8" data-name="Path 8" d="M91.2,73.456,81.42,63.683a4.047,4.047,0,0,0,.637-.782,7.262,7.262,0,0,0,.3-4.886,6.677,6.677,0,0,1-.126-2.789,6.612,6.612,0,0,1,1.857-2,7.313,7.313,0,0,0,2.95-3.987,7.21,7.21,0,0,0-1.388-4.654,6.734,6.734,0,0,1-1.081-2.61,6.717,6.717,0,0,1,1.085-2.61,7.214,7.214,0,0,0,1.389-4.656,7.315,7.315,0,0,0-2.951-3.986,6.633,6.633,0,0,1-1.851-2,6.667,6.667,0,0,1,.127-2.787,7.265,7.265,0,0,0-.3-4.888,7.3,7.3,0,0,0-4.113-2.709,6.6,6.6,0,0,1-2.453-1.26,6.652,6.652,0,0,1-.822-2.643A7.289,7.289,0,0,0,72.723,9.93a7.271,7.271,0,0,0-4.769-1.147A6.671,6.671,0,0,1,65.2,8.425a6.633,6.633,0,0,1-1.657-2.189,7.306,7.306,0,0,0-3.395-3.591A7.232,7.232,0,0,0,55.3,3.2a6.694,6.694,0,0,1-2.738.613,6.537,6.537,0,0,1-2.275-1.472A7.346,7.346,0,0,0,45.821.125a7.351,7.351,0,0,0-4.454,2.218,6.537,6.537,0,0,1-2.275,1.472A6.642,6.642,0,0,1,36.356,3.2a7.234,7.234,0,0,0-4.85-.556,7.311,7.311,0,0,0-3.395,3.591,6.621,6.621,0,0,1-1.657,2.189,6.668,6.668,0,0,1-2.755.358A7.276,7.276,0,0,0,18.93,9.93a7.284,7.284,0,0,0-1.957,4.509,6.631,6.631,0,0,1-.82,2.641A6.616,6.616,0,0,1,13.7,18.34a7.291,7.291,0,0,0-4.113,2.71,7.256,7.256,0,0,0-.3,4.886A6.665,6.665,0,0,1,9.4,28.725a6.617,6.617,0,0,1-1.851,2A7.323,7.323,0,0,0,4.6,34.71a7.234,7.234,0,0,0,1.387,4.656,6.707,6.707,0,0,1,1.086,2.61,6.721,6.721,0,0,1-1.086,2.61A7.231,7.231,0,0,0,4.6,49.241a7.321,7.321,0,0,0,2.951,3.987,6.6,6.6,0,0,1,1.851,2,6.66,6.66,0,0,1-.127,2.787,7.27,7.27,0,0,0,.3,4.888,4.012,4.012,0,0,0,.638.784L.437,73.456a1.492,1.492,0,0,0,.663,2.5l10.79,2.939,2.938,10.79a1.491,1.491,0,0,0,1.056,1.045,1.561,1.561,0,0,0,.384.049,1.492,1.492,0,0,0,1.056-.437L28.817,78.853a5.69,5.69,0,0,0,2.7,2.446,7.243,7.243,0,0,0,4.849-.554,6.559,6.559,0,0,1,2.737-.614A6.543,6.543,0,0,1,41.375,81.6a7.357,7.357,0,0,0,4.446,2.225,7.344,7.344,0,0,0,4.453-2.219,6.548,6.548,0,0,1,2.275-1.471,6.579,6.579,0,0,1,2.737.613,7.255,7.255,0,0,0,4.851.556,5.7,5.7,0,0,0,2.7-2.447L74.328,90.343a1.493,1.493,0,0,0,1.056.438,1.538,1.538,0,0,0,.383-.049,1.492,1.492,0,0,0,1.057-1.045L79.763,78.9l10.789-2.938a1.493,1.493,0,0,0,.663-2.5ZM17.033,86.414l-2.488-9.13A1.494,1.494,0,0,0,13.5,76.24L4.369,73.749l8.479-8.467c.285.112.571.226.849.328a6.614,6.614,0,0,1,2.453,1.26,6.639,6.639,0,0,1,.822,2.643,7.293,7.293,0,0,0,1.957,4.509,7.271,7.271,0,0,0,4.777,1.146,6.666,6.666,0,0,1,2.755.358,2.724,2.724,0,0,1,.73.737ZM60.957,76.207c-.6,1.013-1.209,2.061-1.843,2.293a5.556,5.556,0,0,1-2.836-.564,8.526,8.526,0,0,0-4.25-.746,8.327,8.327,0,0,0-3.66,2.111c-.913.755-1.858,1.534-2.553,1.534s-1.641-.779-2.552-1.534a8.319,8.319,0,0,0-3.654-2.1,4.525,4.525,0,0,0-.8-.068,10.6,10.6,0,0,0-3.452.807,5.581,5.581,0,0,1-2.828.565c-.636-.233-1.251-1.282-1.845-2.295a8.356,8.356,0,0,0-2.734-3.264,8.439,8.439,0,0,0-4.224-.76,5.58,5.58,0,0,1-2.876-.448,5.6,5.6,0,0,1-.941-2.765,8.433,8.433,0,0,0-1.474-4.022,8.373,8.373,0,0,0-3.7-2.138c-1.044-.39-2.239-.83-2.568-1.407a5.609,5.609,0,0,1,.059-2.9,8.46,8.46,0,0,0-.015-4.3A8.365,8.365,0,0,0,9.489,50.96c-.9-.766-1.829-1.557-1.941-2.239a5.59,5.59,0,0,1,1.045-2.668,8.525,8.525,0,0,0,1.467-4.076,8.525,8.525,0,0,0-1.473-4.081,5.6,5.6,0,0,1-1.045-2.668c.118-.675,1.045-1.465,1.94-2.239a8.353,8.353,0,0,0,2.724-3.246,8.461,8.461,0,0,0,.015-4.3,5.6,5.6,0,0,1-.058-2.9c.335-.579,1.523-1.02,2.57-1.41a8.4,8.4,0,0,0,3.7-2.136A8.419,8.419,0,0,0,19.9,14.972a5.616,5.616,0,0,1,.942-2.764,5.591,5.591,0,0,1,2.877-.447A8.442,8.442,0,0,0,27.945,11a8.368,8.368,0,0,0,2.734-3.264c.6-1.014,1.21-2.061,1.843-2.294a5.542,5.542,0,0,1,2.836.563,8.475,8.475,0,0,0,4.251.747,8.309,8.309,0,0,0,3.659-2.109c.911-.755,1.859-1.534,2.553-1.534s1.642.779,2.552,1.534a8.314,8.314,0,0,0,3.66,2.108,8.526,8.526,0,0,0,4.25-.746,5.539,5.539,0,0,1,2.836-.564c.635.233,1.251,1.281,1.845,2.295A8.374,8.374,0,0,0,63.7,11a8.459,8.459,0,0,0,4.224.759,5.6,5.6,0,0,1,2.876.448,5.6,5.6,0,0,1,.942,2.764A8.419,8.419,0,0,0,73.214,19a8.385,8.385,0,0,0,3.7,2.138c1.045.389,2.239.829,2.569,1.407a5.615,5.615,0,0,1-.06,2.9,8.46,8.46,0,0,0,.014,4.3,8.363,8.363,0,0,0,2.724,3.246c.9.766,1.828,1.556,1.94,2.239A5.6,5.6,0,0,1,83.057,37.9a8.529,8.529,0,0,0-1.475,4.075,8.525,8.525,0,0,0,1.473,4.08A5.6,5.6,0,0,1,84.1,48.725c-.118.675-1.045,1.465-1.94,2.238a8.364,8.364,0,0,0-2.724,3.246,8.46,8.46,0,0,0-.015,4.3,5.605,5.605,0,0,1,.057,2.9c-.335.579-1.522,1.02-2.569,1.409a8.4,8.4,0,0,0-3.7,2.138,8.409,8.409,0,0,0-1.471,4.021,5.622,5.622,0,0,1-.942,2.764,5.586,5.586,0,0,1-2.877.448,8.443,8.443,0,0,0-4.222.76A8.37,8.37,0,0,0,60.957,76.207Zm17.188.03A1.493,1.493,0,0,0,77.1,77.281l-2.488,9.13L64.463,76.262a2.718,2.718,0,0,1,.73-.737,6.662,6.662,0,0,1,2.755-.359,7.275,7.275,0,0,0,4.776-1.147,7.278,7.278,0,0,0,1.956-4.509A6.654,6.654,0,0,1,75.5,66.87a6.645,6.645,0,0,1,2.453-1.26c.279-.1.566-.216.851-.33l8.479,8.468Zm0,0" transform="translate(0.001 -0.125)"/>
  <line id="Line_9" data-name="Line 9" x1="19.907" y2="19.907" transform="translate(34.647 33.108) rotate(-9)" fill="none" stroke="#000" stroke-linecap="round" stroke-width="3"/>
  <g id="Ellipse_3" data-name="Ellipse 3" transform="translate(35.667 30.184)" fill="none" stroke="#000" stroke-width="3">
    <ellipse cx="4.147" cy="4.147" rx="4.147" ry="4.147" stroke="none"/>
    <ellipse cx="4.147" cy="4.147" rx="2.647" ry="2.647" fill="none"/>
  </g>
  <g id="Ellipse_4" data-name="Ellipse 4" transform="translate(47.279 45.114)" fill="none" stroke="#000" stroke-width="3">
    <ellipse cx="4.147" cy="4.147" rx="4.147" ry="4.147" stroke="none"/>
    <ellipse cx="4.147" cy="4.147" rx="2.647" ry="2.647" fill="none"/>
  </g>
</svg>
