<svg id="shield_2_" data-name="shield (2)" xmlns="http://www.w3.org/2000/svg" width="71.117" height="86.695" viewBox="0 0 71.117 86.695">
  <g id="Group_19" data-name="Group 19" transform="translate(33.867 6.775)">
    <g id="Group_18" data-name="Group 18">
      <path id="Path_14" data-name="Path 14" d="M247.7,40.01a1.691,1.691,0,1,0,1.692,1.692A1.688,1.688,0,0,0,247.7,40.01Z" transform="translate(-246.01 -40.01)"/>
    </g>
  </g>
  <g id="Group_21" data-name="Group 21" transform="translate(0)">
    <g id="Group_20" data-name="Group 20">
      <path id="Path_15" data-name="Path 15" d="M115.424,10.16a8.476,8.476,0,0,1-8.466-8.466A1.693,1.693,0,0,0,105.264,0H57.853A1.693,1.693,0,0,0,56.16,1.693a8.476,8.476,0,0,1-8.466,8.466A1.693,1.693,0,0,0,46,11.853V39.485A49.184,49.184,0,0,0,81.072,86.624a1.693,1.693,0,0,0,.973,0,49.189,49.189,0,0,0,35.072-47.139V11.853A1.693,1.693,0,0,0,115.424,10.16Zm-1.693,29.326A45.537,45.537,0,0,1,81.559,83.231,45.785,45.785,0,0,1,49.387,39.485V13.426A11.881,11.881,0,0,0,59.426,3.387h44.266a11.881,11.881,0,0,0,10.039,10.039Z" transform="translate(-46)"/>
    </g>
  </g>
  <g id="Group_23" data-name="Group 23" transform="translate(6.773 6.773)">
    <g id="Group_22" data-name="Group 22">
      <path id="Path_16" data-name="Path 16" d="M142.557,48.888a15.253,15.253,0,0,1-7.874-7.874A1.693,1.693,0,0,0,133.132,40H121.555a1.693,1.693,0,0,0,0,3.387h10.506a18.614,18.614,0,0,0,8.123,8.123v21.2a38.572,38.572,0,0,1-25.4,36.592,38.573,38.573,0,0,1-25.4-36.592V51.51a18.615,18.615,0,0,0,8.123-8.123h10.506a1.693,1.693,0,0,0,0-3.387H96.439a1.694,1.694,0,0,0-1.551,1.014,15.253,15.253,0,0,1-7.874,7.874A1.694,1.694,0,0,0,86,50.439V72.712A42.152,42.152,0,0,0,114.221,112.7a1.693,1.693,0,0,0,1.13,0,42.152,42.152,0,0,0,28.221-39.989V50.439A1.694,1.694,0,0,0,142.557,48.888Z" transform="translate(-86 -40)"/>
    </g>
  </g>
  <g id="Group_25" data-name="Group 25" transform="translate(20.319 24.722)">
    <g id="Group_24" data-name="Group 24">
      <path id="Path_17" data-name="Path 17" d="M181.239,146a15.239,15.239,0,1,0,15.239,15.239A15.257,15.257,0,0,0,181.239,146Zm0,27.092a11.853,11.853,0,1,1,11.853-11.853A11.866,11.866,0,0,1,181.239,173.092Z" transform="translate(-166 -146)"/>
    </g>
  </g>
  <g id="Group_27" data-name="Group 27" transform="translate(28.785 34.881)">
    <g id="Group_26" data-name="Group 26">
      <path id="Path_18" data-name="Path 18" d="M230.743,206.5a1.694,1.694,0,0,0-2.395,0l-7.269,7.269-2.189-2.189a1.693,1.693,0,0,0-2.395,2.395l3.387,3.387a1.694,1.694,0,0,0,2.395,0l8.466-8.466A1.694,1.694,0,0,0,230.743,206.5Z" transform="translate(-215.999 -206)"/>
    </g>
  </g>
</svg>
