<svg id="tap" xmlns="http://www.w3.org/2000/svg" width="52.761" height="84.41" viewBox="0 0 52.761 84.41">
  <path id="Path_10" data-name="Path 10" d="M261.68,309.3a1.649,1.649,0,1,0-1.649-1.649A1.649,1.649,0,0,0,261.68,309.3Zm0,0" transform="translate(-217.162 -255.552)"/>
  <path id="Path_11" data-name="Path 11" d="M.319,86.188a48.135,48.135,0,0,0,12.823,23.025l.053.053v6.9a1.648,1.648,0,0,0,1.649,1.649H44.519a1.649,1.649,0,0,0,1.649-1.649v-7.09A40.909,40.909,0,0,0,52.762,86.8V73.962A6.591,6.591,0,0,0,42.5,68.485a6.589,6.589,0,0,0-9.892-3.3,6.594,6.594,0,0,0-9.52-3.532V46.595a6.595,6.595,0,0,0-13.189,0V70.332l-4.505,3A12.168,12.168,0,0,0,.319,86.188Zm6.9-10.109L9.9,74.294V85.5a1.649,1.649,0,0,0,3.3,0V46.595a3.3,3.3,0,0,1,6.595,0V78.908a1.649,1.649,0,0,0,3.3,0V67.367a3.3,3.3,0,0,1,6.595,0v11.54a1.649,1.649,0,0,0,3.3,0V70.664a3.3,3.3,0,1,1,6.595,0v8.243a1.649,1.649,0,0,0,3.3,0V73.962a3.3,3.3,0,0,1,6.595,0V86.8a37.61,37.61,0,0,1-6.318,20.865,1.652,1.652,0,0,0-.277.914v5.935H16.492v-5.935a1.649,1.649,0,0,0-.483-1.166A44.926,44.926,0,0,1,3.528,85.433,8.858,8.858,0,0,1,7.222,76.079Zm0,0" transform="translate(0 -33.405)"/>
  <path id="Path_12" data-name="Path 12" d="M227.485,361.78a1.648,1.648,0,0,0,2.286-.457,34.02,34.02,0,0,0,5.316-13.491,1.649,1.649,0,0,0-3.255-.531,30.735,30.735,0,0,1-4.8,12.192A1.648,1.648,0,0,0,227.485,361.78Zm0,0" transform="translate(-189.368 -288.889)"/>
  <path id="Path_13" data-name="Path 13" d="M21.68,14.838a1.649,1.649,0,0,0,1.649-1.649,9.892,9.892,0,0,1,19.784,0,1.649,1.649,0,1,0,3.3,0,13.189,13.189,0,0,0-26.378,0A1.649,1.649,0,0,0,21.68,14.838Zm0,0" transform="translate(-16.729)"/>
</svg>
